<?xml version="1.0" encoding="UTF-8"?>
<svg id="Layer_1" data-name="Layer 1" xmlns="http://www.w3.org/2000/svg" xmlns:xlink="http://www.w3.org/1999/xlink" viewBox="0 0 128.38 34.34">
  <defs>
    <style>
      .cls-1 {
        fill: #000;
      }

      .cls-1, .cls-2, .cls-3 {
        stroke-width: 0px;
      }

      .cls-2 {
        fill: #e30d16;
      }

      .cls-3 {
        fill: #fff;
      }

      .cls-4 {
        mask: url(#mask);
      }
    </style>
    <mask id="mask" x="-27.2" y="-37.05" width="199.35" height="95.44" maskUnits="userSpaceOnUse">
      <g>
        <rect class="cls-3" x="-3.91" y="-27.79" width="139.49" height="82.67"/>
        <g>
          <path class="cls-1" d="M59.27,14.63h-.4s0,0,0,0h0s0,0,0-.01l.7.25h0c.05-.05.08-.12.09-.18h0s0,0,0,0h0s0-.03,0-.05h-.4Z"/>
          <path class="cls-1" d="M63.49,11.1h0s-.36-.1-.36-.1h0s0,0-.03,0v.25h0v-.25s-.02.5-.02.5h.03v-.25s0,0,0,0v.25c.33,0,.61-.1.75-.28l-.36-.11h0Z"/>
          <path class="cls-1" d="M35.71,14.42h0l-.12-.04-.23-.09s-.03.02-.05.03c-.02.01-.04.03-.06.04-.02.01-.04.03-.05.04h0l.64.3h0s.03-.02.05-.03c.05-.03.1-.07.15-.11h.01s-.35-.13-.35-.13h0Z"/>
          <path class="cls-1" d="M65.49,28.53l.4-.02c-.02-.18-.16-.33-.38-.42l-.46.41s0,0,0,0c0,0,0,0,0,0,.01,0,.02.01.02.04,0,0,0,0,0,0l.4-.02h0Z"/>
          <path class="cls-1" d="M32.13,1.59l.15.23c.15-.04.27-.1.36-.18h0s0,0,0,0c.08-.07.13-.16.14-.27v-.03s0-.03,0-.03c-.02-.09-.05-.16-.11-.22-.02-.02-.04-.05-.07-.07h0l-.64.3s0,0,0,.02c0,0,0,.01,0,.01h0s0,0,0,0c0,0,0,.01,0,.02h0s.02,0,.02,0l.13.21h0s0,0,0,0Z"/>
          <path class="cls-1" d="M77.57,22.34h0l.25.19-.24-.2s0,0,0,0l.25.19s.03-.01.04-.02h0s0,0,0,0h0s0,0,0,0h0s0,0,0,0h0s.04-.02.06-.04h0s0,0,0,0l-.56-.36h0s-.03.01-.05.02c0,0,0,0,0,0h0s0,0,0,0h-.02s.25.21.25.21h0ZM77.33,22.14l.25.19s0,0,0,0l-.25-.19Z"/>
          <path class="cls-1" d="M57.73,28.45l.04.25c.32-.02.58-.16.69-.38l.02-.04c.03-.15-.02-.29-.13-.4l-.68.26h0s0,0,0,0c0,0,.01.02,0,.04,0,.01-.02.02-.02.02t0,0h0s0,0,.02,0c0,0,0,0,0,0h.03s.03.23.03.23h0,0Z"/>
          <polygon class="cls-1" points="51.78 18.28 51.78 18.28 51.78 18.28 52.07 18.11 52.07 18.11 52.07 18.11 51.84 17.96 51.25 18.29 51.35 18.36 51.35 18.36 51.48 18.45 51.78 18.28 51.78 18.28"/>
          <path class="cls-1" d="M62.56,23.6s0,0,0,0l-.33-.14s0,0,0,0c0,0-.02.02-.02.02,0,0-.01,0-.01.01h0s0,0,0,0l.69.26h.01s-.33-.16-.33-.16c0,0,0,0,0,0Z"/>
          <path class="cls-1" d="M99.84,7.29h0l.28.18h0l.04-.03s.08-.05.11-.07h0s0,0,0,0l-.6-.34s0,0,0,0h0s-.03.02-.05.03c0,0,0,0,0,0-.02.01-.04.02-.06.04h0s.28.18.28.18h0Z"/>
          <path class="cls-1" d="M82.87,22.62s.01.04.02.05c.08.15.23.26.43.33l.38-.44h0s-.01,0-.02-.01c-.01-.01-.02-.03-.03-.05l-.78.12h0Z"/>
          <path class="cls-1" d="M50.53,9.6h.04s0,.05,0,.05h.09s-.02-.05-.02-.05l.62-.02c-.02-.23-.27-.39-.64-.42h-.07s-.07,0-.07,0l.07.19-.02.25Z"/>
          <path class="cls-1" d="M38.95.79s.02-.02.04-.03c0,0,.02,0,.03-.01h0-.05s-.01.04-.01.04h0s0,0,0,0Z"/>
          <path class="cls-1" d="M28.05,12.52s0,0,0,0c0,0,0,0,0,0t0,0h0s0,0,0,0h0s.03.04.04.06l.33-.1.02.05h.05s-.02-.07-.02-.07l.34-.1s0,0,0,0h0s0,0,0,0h0s0,0,0,0h0s0,0,0,0h0s-.04-.06-.06-.09l-.02-.04h0l-.33.07-.1-.24-.48.07.17.3s.03.06.05.09Z"/>
          <path class="cls-1" d="M28.8,21.02h0s-.03.02-.04.03c-.04.04-.1.08-.14.13l.73.2s.02-.02.03-.03c0,0,0,0,.01,0,.03-.02.06-.05.09-.08h0s0,0,0,0l-.69-.26Z"/>
          <path class="cls-1" d="M89.77,2.38l-.05.09h0,0l.08.08s.04,0,.07-.01c.04,0,.09-.02.13-.03h0s-.1-.13-.1-.13h.08s.4-.04.4-.04c0-.04-.03-.09-.07-.13h0s0,0,0,0c-.07-.07-.19-.13-.35-.17l-.15-.03-.15.04s-.04,0-.06.01c-.06.01-.14.03-.21.06l.26.27h.12Z"/>
          <path class="cls-1" d="M106,16.31s.03.06.05.09l.74-.19h0s-.02-.03-.02-.04c0,0,0,0,0,0,0,0,0,0,0-.01,0,0,0-.02-.01-.03,0,0,0,0,0-.01,0,0,0,0,0,0,0,0,0,0,0,0-.02-.03-.04-.05-.06-.08l-.7.25.02.04h0Z"/>
          <path class="cls-1" d="M99.28,20.02c.06,0,.21.04.27.26,0,.06-.02.1-.04.13,0,0,0,0,0,0h0l.66.28c.13-.12.2-.27.2-.45v-.03c-.08-.29-.27-.46-.48-.56h0c-.15-.07-.29-.11-.41-.12l-.1.24h0l-.1.24h0Z"/>
          <path class="cls-1" d="M100.84,32.38l.55-.36h0s-.02-.01-.04-.02c-.21-.15-.23-.42-.25-1.16v-.14s-.11-.04-.11-.04l-.7-.62v.39h-.02s.01.41.01.41c.02.85.03,1.24.54,1.54Z"/>
          <path class="cls-1" d="M42.14,9.32h0s.03-.02.04-.03c.03-.02.06-.04.09-.07h0s.03-.03.04-.05l-.26-.08.27.08-.36-.11h0s-.35-.12-.35-.12h0s0,0,0,0c0,0-.02.02-.04.03-.03.02-.06.05-.09.07h0,0l.67.28Z"/>
          <path class="cls-1" d="M58.02,17.71s0,.01,0,.02h.81c0-.11-.04-.2-.1-.28l-.72.22s0,0,0,0c0,0,0,.02,0,.03Z"/>
          <path class="cls-1" d="M24.63,31.88h0s-.03.02-.05.03c-.06.03-.13.07-.18.12l.66.28h0s0,0,0,0c.01,0,.03-.02.04-.02,0,0,0,0,0,0,.04-.02.07-.04.1-.06h0l-.6-.33Z"/>
          <path class="cls-1" d="M83.61,23s0,0,0,0t0,0s.01-.01.03-.02c0,0,0,0,.01,0l.4.43h.03s0-.01.01-.02c.24-.1.35-.27.32-.49h0l-.4.02h0l-.4.02s0,.05,0,.06h0Z"/>
          <path class="cls-1" d="M24.77,6.69h0l-.04-.25c-.29.02-.51.15-.61.36l.69.13-.04-.23Z"/>
          <path class="cls-1" d="M67.81,30.17h0s.08.15.08.15c0,0-.01,0-.02,0,0,0,0,0,0,0,.03,0,.07,0,.1,0h0l-.04-.14.49.03v-.03h0v-.02h0s-.01-.07-.04-.1h0s0,0,0,0h0c-.04-.06-.12-.13-.27-.18l-.14-.05-.15.02s-.03,0-.05,0h0s-.03,0-.05,0h0s-.05,0-.07,0l.16.32h0Z"/>
          <path class="cls-1" d="M12.1,17.57h0s.03-.03.04-.04c.03-.02.05-.04.07-.07l-.68-.26h0s0,0,0,0c0,.01-.02.02-.04.04-.03.03-.06.05-.09.07h0s.69.26.69.26Z"/>
          <path class="cls-1" d="M102.1,10.35h0s.04,0,.07,0c.23-.03.41-.13.52-.28h0s.02-.03.03-.04h0l-.69-.15h0l.08.47Z"/>
          <path class="cls-1" d="M63.38,4.05s-.01.01-.02.02c-.01,0-.03.01-.07.02l.2.48h0s.02,0,.04,0h0c.25-.05.44-.14.56-.28l-.36-.12.36.12s.07-.09.09-.14l-.78-.12s-.01.02-.02.03Z"/>
          <path class="cls-1" d="M71.48,13.33h0s-.03.02-.04.03c0,0-.01,0-.02,0-.01,0-.03.02-.04.02h0s.29.17.29.17h0,0l.29.17.03-.02s.02-.01.04-.02c.02-.01.05-.03.07-.04h0s0,0,0,0l-.62-.32Z"/>
          <path class="cls-1" d="M29.58,8.43h0s0,0,0,0h0s0,0,0,0t0,0h0s0,0,0,0h0s0,0,0,0h0s-.04-.05-.06-.07h0s0,0,0,0c0,0,0,0,0,0,0,0,0,0,0,0h0s0,0,0,0c0,0,0,0,0,0h0s0,0,0,0h0c-.05-.05-.12-.1-.2-.14l-.49.39s0,0,0,0c.02.01.06.05.06.2-.02.08-.04.12-.06.15,0,0,0,0,0,0h0s.31.16.31.16l.32.15s.04-.04.06-.05c0,0,0,0,0,0h0s.07-.08.09-.12h0s0,0,0,0c.04-.07.07-.15.09-.22v-.02s0-.02,0-.02c0-.08,0-.23-.1-.38Z"/>
          <path class="cls-1" d="M58.9,23.82h0s0,0,0,0c-.02,0-.04.01-.06.02,0,0-.02,0-.02,0-.02,0-.05.02-.07.02-.02,0-.03.01-.04.02l.43.42s0,0,0,0h0s.04-.01.07-.02c.06-.02.12-.04.18-.06h0s0,0,0,0h0s.03-.01.04-.02h0l-.51-.38h0Z"/>
          <path class="cls-1" d="M57.25,18.94l-.07.24.06-.24s-.03,0-.05,0c-.02,0-.03,0-.05,0v.25s-.01-.25-.01-.25v.25s0,0,0,0c0,0,0,0,0,0v.16h0l-.02.09.02-.07-.02.07.02-.06h0s0,0,0,0h0s0,0,0,0v.06s0-.03,0-.03v.03-.07s.01-.03.01-.03l.55-.21c-.1-.1-.26-.17-.44-.18Z"/>
          <path class="cls-1" d="M62.91,26.02s-.05-.09-.1-.13l-.68.26s.02.03.03.04c.02.03.04.07.06.09h0s0,.12,0,.12h0v.25s.01,0,.01,0c.24,0,.44-.07.58-.18.08-.07.14-.16.16-.25l.02-.08-.06-.07s-.02-.03-.03-.04Z"/>
          <path class="cls-1" d="M60.63,32.84h0s0,0,0,0c-.02,0-.04.01-.07.02-.05.01-.12.03-.18.05h0s-.03.01-.04.02h0l.45.41s.04-.01.07-.02c.05-.01.1-.02.14-.04h0s0,0,0,0l-.38-.44Z"/>
          <path class="cls-1" d="M82.79,9.28h0c.1-.07.18-.17.22-.28v-.04c.04-.26-.12-.48-.44-.61h0s0,0,0,0l-.44.41s.02,0,.03.01c.03.02.08.05.07.13-.01.03-.03.04-.03.04v.25h0v-.25.25h0,0v.25s0,0,0,0v-.25s0,0,0,0h0v.25h0c.24,0,.44-.06.59-.17h0Z"/>
          <path class="cls-1" d="M91.92,15.91h0s0,0,0,0c0,0,.01,0,.02-.01,0,0,0,0,0,0h0s.03,0,.06,0h0v.08h-.1.09l-.06.41s.03,0,.04,0h.02c.32,0,.58-.13.69-.34l.02-.04v-1.64l-.79,1.53s0,.02-.01.02Z"/>
          <path class="cls-1" d="M89.13,24.45h-.06s-.06.49-.06.49c.09,0,.09.02.1.05l.8-.07c-.06-.26-.35-.43-.77-.47Z"/>
          <path class="cls-1" d="M84.71,30.49h0s0,0,0,0c-.06-.22-.36-.37-.77-.35h-.08s-.11.03-.11.03c0,0-.01,0-.02,0-.03.01-.07.02-.1.04l.34.3v.05s.05,0,.05,0l.06.06h0s0,0,0,0c0,0,.01,0,.02,0l-.04-.05h0l.04.05v-.02s0,.02,0,.02l-.04-.05.62-.03h0s0-.03,0-.04Z"/>
          <path class="cls-1" d="M88.21,24.11h0l-.12.12-.38-.18h-.01s-.05.05-.06.08c-.04.06-.06.13-.03.22l.03.12.46.17.42-.42-.29-.11h0ZM88.4,24.29s0,.02,0,.03c0,.01-.02.03-.03.04l-.12-.05.16-.02Z"/>
          <path class="cls-1" d="M43.98-.28c-.06-.12-.18-.23-.43-.28l-.14.23.12-.24-.13.24h0l.13-.24c-.07-.01-.14-.02-.22-.02h-.02v.25s-.01-.25-.01-.25v.25s0,0,0,0v-.25s-.05,0-.08,0l.04.25h0,0l.04.24h0s-.03,0-.04-.01c-.01,0-.02-.01-.02-.02,0,0,0,0,0,0,0,0,0,0,0,0,.01.02.03.06.03.1-.01.02-.02.03-.02.03h0,0s0,0,.02-.01c0,0,0,.01,0,.02h0s.05,0,.05,0l.42.38h0c.08-.03.14-.08.19-.13h0s0,0,0,0c.06-.06.1-.14.12-.23V0s0-.03,0-.03c-.01-.06-.03-.15-.07-.24ZM43.3-.35h0s0,0,0,0ZM43.3-.35h0s0,0,0,0ZM43.28-.11v-.24s0,0,0,0V-.11s0,0,0,0ZM43.29-.12h0s.01-.23.01-.23h0V-.12s0-.23,0-.23h0V-.12s-.01,0-.01,0ZM43.31-.16l.09-.17h0l-.09.17h0Z"/>
          <path class="cls-1" d="M42.22,10.87l-.12.88s0,.03,0,.03h0s0,0,.02-.01c0,0,.02,0,.02,0h0s.04.11.04.11l.16.37h0s.05,0,.07-.01c.28-.07.47-.23.5-.44h0v-.08l-.69-.85Z"/>
          <path class="cls-1" d="M39.63.57s-.06-.05-.1-.08c-.01,0-.03-.02-.04-.03h0l-.45.28h0s0,0,0,0h0s-.03,0-.03,0h0s0,0,0,0l-.1.06s.03.02.04.04c.03.03.06.06.1.08h0s.07-.04.07-.04l.18.32c.15-.03.42-.13.45-.42v-.1s-.1-.08-.1-.08c-.01,0-.03-.02-.04-.04Z"/>
          <path class="cls-1" d="M57.93.06s0,0,0,0h0s0,0,0,0h0s0,0,0,0l-.32.15h0l-.04.02-.07-.14s0,0,0,0h0s-.07.01-.1.02t0,0h-.02s0,0,0,0c.01,0,.02,0,.03,0h0s0,0,0,0l.05.17-.09.04h.1v.03h0l.07.24s.04,0,.06,0h0s0,0,0,0c0,0,0,0,0,0h0s.04,0,.06-.01h0s.02,0,.03,0l.3-.05v-.18h0c0-.06.03-.16-.08-.25h0Z"/>
          <path class="cls-1" d="M55.64,21.36h0s0,0,0,0h0s0,0,0,0h0s-.12-.07-.12-.07c.03-.02.05-.02.06-.03,0,0,0,0,0,0,0,0,0,0,0,0-.02,0-.04,0-.07.01-.03,0-.07.01-.1.02l-.11-.03h0l-.36-.11-.02.02s0,0,0,.01c-.09.15-.05.3.1.42h0c.08.06.2.12.34.16l.16.04.16-.04s.04,0,.07-.01c.1-.02.24-.04.35-.11l-.45-.28Z"/>
          <path class="cls-1" d="M57.22.27h0s0,0,0,0h0s0-.02,0-.02h0s0,0,0,0c0,.02,0,.04,0,.06h0s.04,0,.04,0h0s-.02-.03-.02-.04Z"/>
          <path class="cls-1" d="M43.9,29.64l-.25.16.24-.17c-.06-.04-.14-.07-.21-.09l-.27.4-.07.04s.02.01.04.06c0,.01,0,.02,0,.03,0,0,0,0,0,0h0s0,0,.01-.01c0,0,0,0,0,.01h.03s.32.43.32.43h.04s.08-.04.12-.06h0s0,0,0,0h0s0,0,0,0c0,0,0,0,0,0h0c.08-.04.15-.1.2-.16h0s0,0,0,0c0,0,0,0,0,0h0c.06-.08.08-.17.08-.26v-.05c-.07-.14-.16-.25-.29-.32ZM43.37,30.01s-.03,0-.03-.01l.04-.03-.04.03.06-.04-.03.05Z"/>
          <path class="cls-1" d="M46.07,14.15s0,.04,0,.05h0l.79.08s.02-.07.02-.1c0,0,0-.02,0-.03h0l-.81-.02h0Z"/>
          <path class="cls-1" d="M52.22,20.24h0s-.02-.03-.03-.04c-.02-.03-.04-.05-.07-.08h0s0,0,0,0h0s-.04-.04-.07-.05l-.61.32s.02.03.03.04c.02.02.04.04.06.06,0,0,.01.01.02.02t0,0l.34-.14h0l.34-.14h0Z"/>
          <path class="cls-1" d="M44.83,6.12h0s0,0,0,0c0,0,0,0,0,0h0c-.08-.1-.2-.19-.41-.25l-.16.23h0,0l-.16.23s.04.13.05.21c-.02.09-.06.12-.06.12h0l.29.46h.03c.21-.07.47-.2.54-.54v-.02s0-.02,0-.02c0-.11-.02-.26-.11-.4Z"/>
          <path class="cls-1" d="M47.74,32.9l-.27-.07c-.09-.02-.19-.05-.3-.07l-.1.24h0l-.04.09h.06s-.07.02-.07.02l-.05.13s.1.02.16.04l.08.02h0l.1-.14.43.1h0s0,0,0,0h0s0,0,0,0c.04-.07.05-.14.03-.21l-.04-.13Z"/>
          <path class="cls-1" d="M50.26,21h0s-.03-.02-.04-.04c-.02-.02-.04-.03-.06-.05h0s-.05-.04-.08-.05h-.01s-.28.17-.28.17l.26-.19-.38.27-.16.1s.02.02.03.03c0,0,0,0,0,0,0,0,.02.01.02.02.02.02.05.04.07.06l.31-.16h0l.31-.16h0Z"/>
          <path class="cls-1" d="M67.05,14.61s0,0,0,0c-.1-.07-.24-.13-.42-.16l-.2-.04-.16.08s-.04.02-.06.03c-.04.01-.08.03-.12.05h0s0,0,0,0c-.03.01-.05.03-.08.04h0s0,0,0,0c0,0,0,0,0,0l.43.27h0s-.01,0-.01,0h0s0,0,0,0h0s.02,0,.02,0l.12.07s.04-.02.06-.03c.01,0,.03,0,.04-.01l.14.02h0l.39.06s.02-.04.02-.07c0,0,0-.02,0-.03,0,0,0,0,0,0h0c0-.12-.05-.22-.16-.3h0Z"/>
          <polygon class="cls-1" points="110.77 14.16 110.64 14.11 110.46 13.99 110.21 14.04 109.42 14.21 109.88 14.4 109.86 14.5 110.66 14.59 110.69 14.46 111.01 14.38 110.76 14.2 110.77 14.16"/>
          <path class="cls-1" d="M109.11,2.76c.39,0,.68-.15.75-.39h0l-.4-.04h0l-.35-.03v.21h0v-.21s-.01,0-.01,0l-.03.22h0l-.03.25s.05,0,.07,0ZM109.11,2.51h0s0,0,0,0h0Z"/>
          <path class="cls-1" d="M108.34,18.31h0s-.03-.02-.04-.04c-.02-.02-.04-.04-.06-.06h0s-.05-.04-.09-.07l-.58.34s.02.02.04.04c.03.03.06.05.09.08h0s.64-.3.64-.3h0Z"/>
          <path class="cls-1" d="M110.28,16.93s-.01-.04-.02-.07h0s0,0,0,0c0-.02-.02-.04-.03-.07v-.02s-.38.1-.38.1h0l-.19.05-.19.04h0s0,.01,0,.02c0,0,0,.02,0,.02,0,.02,0,.03.02.05,0,0,0,.02.01.03h0l.78-.13h0s0-.03-.01-.04Z"/>
          <path class="cls-1" d="M80.2,26.21l-.11.31s-.01.03-.02.04c-.02.05-.04.11-.05.18h0s.32.01.32.01h-.32s0,0,0,0h.31s-.03.04-.03.04l.03-.04h.49s-.4,0-.4,0h0s.4,0,.4,0c0,0,0,0,0,0,0,0,0,0,0,0,0-.02.02-.04.02-.07,0-.02.02-.04.02-.05l.06-.17-.23-.09-.51-.16ZM80.42,26.75h-.08s.09,0,.09,0h0Z"/>
          <path class="cls-1" d="M119.67,5.9v-.03c-.06-.15-.2-.23-.3-.26l-.3.32h-.2s-.02.05-.05.06h-.01s.33.46.33.46c.02,0,.04-.01.06-.02.3-.1.47-.28.48-.49v-.03ZM118.96,6.04s-.01,0-.02,0h0s-.07-.04-.07-.05l.16-.02-.07.08Z"/>
          <polygon class="cls-1" points="33.2 27.2 33.21 27.2 33.21 27.2 33.22 27.2 33.21 27.2 33.2 27.2"/>
          <polygon class="cls-1" points="33.22 27.2 33.23 27.19 33.23 27.19 33.22 27.2"/>
          <polygon class="cls-1" points="58.58 4.02 58.58 4.02 58.58 4.02 58.62 4.01 58.62 4.01 58.58 4.02"/>
          <path class="cls-1" d="M119.19,18.86s-.02-.03-.04-.04c-.01-.01-.02-.02-.04-.04,0,0-.01-.01-.02-.02l-.33.14h0,0l.33-.15-.32.14.31-.14-.33.15h0l-.25.11h0s-.01,0-.01,0h0s0,0,0,0l-.05.02h.03s-.03,0-.03,0c0,0,0,0,0,0,.01.01.02.03.04.04.03.03.05.06.08.09h0s0,0,0,0l.08-.03.03.09s0,0,0,0c0,0,0,0,0,0l.09.24c.11-.01.21-.05.29-.09h0s0,0,0,0h0c.13-.08.21-.18.23-.32l.02-.09-.08-.08s-.03-.03-.04-.04ZM118.52,19.02s.04-.02.07-.02v.03s-.07,0-.07,0ZM118.51,19.02h0l.26-.11h0l-.26.11Z"/>
          <path class="cls-1" d="M106.68,27.46s-.05-.06-.08-.09h0s0,0,0,0h0s0,0,0,0c0,0,0,0,0,0h0s0,0,0,0h0s-.11-.08-.2-.11h0s0,0,0,0h0s0,0,0,0h0s0,0,0,0h0s0,0,0,0h0s0,0,0,0h0s0,0,0,0h0s0,0,0,0h0s-.01,0-.02,0h0s0,0,0,0l-.18.34h-.05s0-.01,0-.01h0l.05.02-.06.12c-.1-.02-.14-.06-.14-.06h0s0,0,0,0c0,.01.02.02.03.03.02.03.05.06.07.08h0s.25-.1.25-.1l.34.18s.09-.08.12-.12l.08-.12-.11-.11s-.02-.02-.03-.04Z"/>
          <path class="cls-1" d="M59.32,3.83h-.02s.02,0,.02,0l-.37.09h0l.37-.1-.33.08.33-.09-.38.1h0l.37-.1-.32.08.32-.09h-.02s.02,0,.02,0l-.37.1h0l.37-.1-.33.09.33-.09-.37.1.37-.11-.37.1s0,0,0,0l.37-.1-.37.1s0,0,0,0l.37-.11-.33.09.32-.09h0s-.37.1-.37.1h0l.37-.11c-.13-.17-.38-.27-.68-.27-.03,0-.07,0-.1,0h-.06s-.06.02-.06.02c-.33.09-.44.24-.47.35l.69.08h0s-.04.03-.04.03h.04s.03-.02.03-.02h0-.04s0,0,0,0h.03s-.08.01-.08.01h0s0,0,0,0h.04s-.02,0-.02,0h.02s.04-.01.04-.01h0-.04s-.02.02-.02.02h.02s.05-.02.05-.02h0s.05,0,.05,0c0,0,0,0,0,0,0,0,0,.01-.01.01h0s0,0,0,0c0,0,0,0,.03,0h0s0,0,0,0l-.02-.02h0s.24-.06.24-.06l.37-.1-.37.1.37-.1ZM58.94,3.92l-.12.03.12-.04s0,0,0,0ZM58.93,3.92h0l-.23.07.23-.07ZM58.7,3.98l.23-.07h0l-.23.07h0ZM58.71,3.99l.24-.06h0l-.24.06h0ZM58.71,3.99l.23-.06h0l-.23.06h0ZM58.71,3.99h0s.24-.06.24-.06h0l-.24.06Z"/>
          <path class="cls-1" d="M99.1,32.18s.05,0,.08-.01l-.24-.47h-.05s-.05.02-.07.02l.24.47h.05Z"/>
          <path class="cls-1" d="M69.2,32.78l-.8-.03s0,.04-.01.04h0s0,0,0,0c0,0,.01-.01.03-.02,0,0,0,0,.01,0l.46.41c.11-.05.25-.14.3-.31,0-.03.01-.05.02-.08h0Z"/>
          <polygon class="cls-1" points="59.3 3.81 59.3 3.81 59.3 3.81 59.3 3.81"/>
          <polygon class="cls-1" points="99.08 28.62 99.08 28.62 99.07 28.62 98.94 28.48 98.66 28.68 98.36 28.72 98.42 28.95 98.51 29.21 98.67 29.19 98.71 29.22 99.02 29.16 99.44 29.02 99.36 28.93 99.94 28.5 99.08 28.62"/>
          <path class="cls-1" d="M105.19,27.4h-.03c-.11,0-.23,0-.34,0-.07,0-.13,0-.2,0h0s.01.25.01.25h0s-.33-.2-.33-.2l-.05.03.3.21-.24.12h0s.09.07.14.11c.05.04.1.08.15.12l.29-.14c.1,0,.19,0,.29,0,0,0,0,0,0,0,.03,0,.06,0,.09,0h0l.05-.49s-.09,0-.14,0h0Z"/>
          <path class="cls-1" d="M19.44,11.76h-.04s-.02.01-.03.02c-.01,0-.03,0-.04,0l.14.23-.14-.23s-.1.02-.16.04c0,0,0,0-.01,0h0,0l.39.43h0s0,0,0,0h0s.04,0,.06-.01c.01,0,.02,0,.03,0,.03,0,.07-.02.1-.02l.06-.02-.26-.27-.1-.17Z"/>
          <path class="cls-1" d="M30.15,10.91h-.06s-.02,0-.02,0v-.05s-.01.05-.01.05h-.01v-.05h0s0,0,0,0v.05s-.3,0-.3,0h0l-.4-.02h0c-.02.22.2.4.55.46h.08s.05.01.08.01h0v-.25h0s0,0,0,0v.25s.04,0,.06,0l-.05-.4.02-.04h.06ZM30.06,11.11v-.1s0-.01,0-.01v.11h0Z"/>
          <path class="cls-1" d="M31.32,18.54l.08.24h0,0l.06.2h-.06s.02,0,.02,0h-.02s.06,0,.06,0h0l.32-.06.38-.08c-.12-.21-.47-.34-.84-.29Z"/>
          <path class="cls-1" d="M27.52,5.24l-.31.46h0s.01,0,.02,0c.05.03.09.09.1.14,0,.04-.02.06-.03.07,0,0,0,0,0,0h0,0l.64.3c.12-.09.18-.22.2-.37v-.03s0-.03,0-.03c-.08-.28-.29-.46-.62-.55Z"/>
          <path class="cls-1" d="M40.43,5.33l-.73-1.22-.08,1.26s0,.03,0,.03h0s0,0,0,0c0,0,.02-.02.05-.03,0,0,0,0,0,0,0,0,.01,0,.02,0l.06.08-.09.02.09-.02.1.15h0,0l.16.23s.06-.02.08-.03c.2-.08.32-.22.34-.4h0v-.05Z"/>
          <polygon class="cls-1" points="40.84 18.4 40.86 18.28 40.86 18.28 40.84 18.4"/>
          <path class="cls-1" d="M19.95.48h0s0,0,0,0h0s0-.02,0-.03h0l-.73.07h0l.25.46h0s.09-.02.12-.04c.26-.09.39-.25.36-.46h0Z"/>
          <path class="cls-1" d="M50.12,5.83s-.01-.02-.02-.03l-.8.07c.03.14.14.26.31.35l.51-.39h0Z"/>
          <path class="cls-1" d="M24.32,10.8s.03.03.04.13h.4s.4-.03.4-.03c-.01-.13-.06-.33-.29-.46l-.55.36Z"/>
          <path class="cls-1" d="M47.35,11.47h-.4s-.4.02-.4.02c0,.02,0,.03,0,.04,0,0,0,0,0,0,0,0,0,0,0,0,0,0,.01-.01.02-.02,0,0,.01,0,.02,0l.32.45c.29-.08.46-.26.45-.48h0Z"/>
          <path class="cls-1" d="M41.28,18.03l-.03-.02-.29.18h0l.29-.18-.04-.02s0,0,0,0c-.08-.04-.18-.06-.29-.07h-.03s-.12,0-.12,0l.09.34h0s0,0,0,0l-.18.11.12-.07.05-.03h0s0,0,0,0h0s0,.02,0,.02v.13s0-.06,0-.06v-.04s0,.04,0,.04v-.03s.02.09.02.09l-.02-.16.4-.22ZM40.96,18.18l-.09.06.09-.06h0Z"/>
          <path class="cls-1" d="M22.52,1.65l-.06-.08-.88-.53.15.72s.06-.07.11-.08l-.02.5h.05s.08,0,.12,0c.16-.02.3-.06.4-.13.09-.06.19-.18.15-.35v-.04ZM21.84,1.69h0v.06s0,.01,0,.01h0s0,.05,0,.05h0v-.06s0,0,0,0v-.06h0Z"/>
          <path class="cls-1" d="M26.35.55s-.08-.09-.14-.14h0s0,0,0,0c0,0-.01,0-.02-.01h0l-.16.08h0s-.09,0-.09,0l-.09.03.04.05-.33.16s.05.05.08.08l.22.26.27-.08h.58l-.33-.37-.03-.04Z"/>
          <path class="cls-1" d="M48.14,18.35l.08-.05-.08.05-.52-.07h0s0,0,0,.01c0,0,0,0,0,0l-.02.02s-.03.05-.04.08l-.06.12.12.1.52.32.19-.4s.02-.03.03-.04l.02-.03s0-.01.01-.02c.01-.02.03-.05.03-.07l-.21-.03h-.06Z"/>
          <path class="cls-1" d="M30.47,21.68s.01,0,.02,0h0l-.22-.48c-.12.02-.31.01-.52-.03l-2.23-.43,1.78.82.12.11h.28c.15.02.29.03.42.03.12,0,.24,0,.34-.03,0,0,0,0,0,0Z"/>
          <path class="cls-1" d="M29.01,32.31h0s0,.02,0,.05c0,.01-.01.02-.02.02,0,0,0,0,0,0,0,0,0,0,0,0,0,0,0,0,.01,0t0,0h.03s-.02.24-.02.24h0l-.02.25h.04s.09,0,.13,0h0s0,0,0,0c0,0,0,0,0,0h.01s0,0,0,0c.1-.01.19-.04.27-.07h0s0,0,0,0c0,0,0,0,0,0h0s0,0,0,0h0c.15-.07.26-.18.32-.31v-.03c.03-.15,0-.29-.12-.39l-.68.27Z"/>
          <path class="cls-1" d="M89.99,19.17l-.59.34h0s0,.01.01.02c0,.03-.02.06-.05.06,0,0-.02,0-.02,0l.02.5s.1,0,.14,0c.42-.04.7-.25.72-.55v-.03s0-.03,0-.03c-.03-.12-.11-.23-.23-.31Z"/>
          <path class="cls-1" d="M61.67,19.83h0-.03s0,.03,0,.03h0,0s.01-.01.03-.03h0s0,0,0,0h0Z"/>
          <path class="cls-1" d="M62.17,20.22c.17-.08.27-.22.27-.37h0s0-.02,0-.03h-.35s.35,0,.35,0l-.77.02h0s-.01,0-.01,0h.01l.49.38Z"/>
          <path class="cls-1" d="M58.36,15.73l.1.46h0l.64-.28c-.16-.14-.42-.21-.74-.18Z"/>
          <path class="cls-1" d="M43.46,22.63l-.4.43s.02,0,.04.01c.32.13.52.4.52.72,0,.14-.04.29-.15.44-.01.02-.03.04-.05.07h0l.73.21c.2-.25.29-.5.27-.73,0-.51-.36-.95-.96-1.16Z"/>
          <polygon class="cls-1" points="66.52 31.19 66.63 31.18 66.63 31.18 66.52 31.19"/>
          <path class="cls-1" d="M67.21,31.39h0c.07-.05.11-.12.12-.19h0s0-.01,0-.01h0s0-.04,0-.06l-.4.03.4-.04-.4.04h0l-.18.02h0,0-.08s0,0,0,0h-.05s-.1.01-.1.01h.16s.08-.01.08-.01l.45.21h0Z"/>
          <polygon class="cls-1" points="59.37 34.14 59.77 34.15 59.72 34.38 59.74 34.38 59.77 34.15 59.83 34.15 60.12 34.26 60.45 33.92 59.37 33.87 59.37 34.14"/>
          <path class="cls-1" d="M60.71,12.84l-.06-.02c-.08-.03-.16-.06-.26-.09l-.3.46h0s.03,0,.04.01c.03,0,.06.02.1.03,0,0,0,0,0,0l.07.03h0s.41-.43.41-.43h0Z"/>
          <path class="cls-1" d="M125.93,23.34h0l-.07.24h0,0l-.05.15h0l-.03.09h0s.05,0,.09.01h0s0,0,0,0c.02,0,.05,0,.07,0v-.11s.16-.47.16-.47l-.15-.02-.03.09Z"/>
          <path class="cls-1" d="M33.95,27.02l-.37.09.37-.09-.37.09h0s0,0,0,0h0s.38-.09.38-.09c-.02-.03-.05-.07-.08-.09h0s0,0,0,0c-.16-.15-.41-.23-.73-.21h-.07s-.06.02-.06.02c-.24.07-.4.19-.45.33h0s0,0,0,0h0s-.02.06-.02.09h.4s0,0,0,0h.29s0,.02,0,.02h-.02s-.02,0-.02,0h0s0,0,0,0c0,0,0,0,0,.01h0s.1-.03.1-.03h0l-.08.02h0s0,0,0,0l.09-.02h.02s0,.02-.01.02h0s0,0,0,0c0,0,.01,0,.03-.01h0s0,0,0,0h0s0-.01,0-.01l.23-.05.37-.1ZM33.34,27.17h0s.05-.01.05-.01l.18-.04h0s-.18.04-.18.04h-.05s.23-.04.23-.04h0s-.23.06-.23.06Z"/>
          <path class="cls-1" d="M87.7,14.47c-.09-.18-.22-.31-.36-.4t0,0h0c-.22-.14-.49-.18-.71-.19h0c-.06,0-.13,0-.2,0l.06.25h0l.06.24s.05,0,.08,0c.07,0,.18.01.29.21,0,.02,0,.04-.01.04h0s.64.3.64.3h0s.03-.03.05-.04h0s0,0,0,0c.09-.09.14-.22.13-.35v-.03s-.02-.03-.02-.03Z"/>
          <path class="cls-1" d="M106.48,24.01s-.01-.01-.02-.02h0s-.01-.02-.02-.02c-.03-.03-.06-.06-.1-.1l-.62.31s.03.03.04.04c.02.03.05.05.07.08l.67-.28s0,0,0,0c0,0,0,0-.02-.01Z"/>
          <path class="cls-1" d="M36.83,28.68h0s-.02.02-.04.03c-.04.03-.09.07-.12.12l.73.22s.01-.01.02-.02h0s.01-.01.02-.02c.03-.03.06-.05.09-.08h0l-.69-.25Z"/>
          <path class="cls-1" d="M30.6,13.46s.03.05.04.07c0,0,0,0,0,0h0s.01.02.02.02h0l.35-.12s0,0,0,0c0,0,0,0,0,0l.36-.12-.4.02h0l-.4.02s.01.07.03.11Z"/>
          <polygon class="cls-1" points="72.23 10.79 72.24 10.79 72.23 10.79 72.23 10.79"/>
          <path class="cls-1" d="M23.16,6.09l-.05-.03c-.06-.03-.13-.07-.21-.11,0,0,0,0,0,0,0,0-.02,0-.03-.01h0l-.45.41s.1.05.15.08l.06.03h0l.27-.19h0l.27-.18h0,0Z"/>
          <path class="cls-1" d="M72.89,10.63h.06s0-.03,0-.03h-.05s0,0,0,0h.05c-.03-.08-.09-.14-.18-.19h0s0,0,0,0h0s0,0,0,0c0,0,0,0,0,0h0s0,0,0,0h0s0,0,0,0h0s-.08-.04-.13-.05c-.13-.03-.29-.04-.45,0l-.22.04-.05.14s-.01.03-.02.04c-.02.04-.05.09-.06.14h0s.36.03.36.03h0s.04.03.06.04c-.03-.02-.05-.04-.05-.04h.11s-.06.05-.06.05h0s0,0,0,0c0,0,0,0,.01,0l.06-.04h.07s.04.07.04.07c0,0,0,0-.02,0-.03,0-.07,0-.1-.02-.01,0-.02,0-.03-.01.07.03.16.05.25.05.21,0,.38-.1.4-.22Z"/>
          <path class="cls-1" d="M95.49,2.36s0,0,0,0c0,0,0,0,0,0,0,0-.02-.02-.03-.03,0,0,0,0,0,0h.14s0,.04,0,.04v-.05h.26s.4-.03.4-.03c-.02-.18-.21-.32-.52-.4l-.07-.02h-2.2l1.98.48s.04.01.04.01Z"/>
          <path class="cls-1" d="M28.57,5.19h0s0,0,0,0c0,.01-.01.03-.02.04-.02.05-.04.1-.05.17h0s.4.02.4.02h.4s0,0,0,0h0s.02-.04.02-.06c0-.02.02-.04.02-.05h0s-.78-.12-.78-.12Z"/>
        </g>
        <g>
          <g>
            <path class="cls-1" d="M116.29,14.66c.07-.2.12-.34.17-.48.23.06.56.09.66.19.1.1-.04.28-.08.42-.21-.04-.42-.07-.75-.13Z"/>
            <path class="cls-1" d="M107.25,31.04c.36.11.66.15.72.23.07.09-.05.27-.18.35-.06.04-.45-.03-.51-.1-.1-.1-.03-.25-.03-.49Z"/>
            <path class="cls-1" d="M126.64,11.21c.34,0,.53.08.5.29,0,.04-.16.1-.22.09-.34-.05-.43-.18-.28-.38Z"/>
            <path class="cls-1" d="M103.32,30.07c.11-.14.16-.25.27-.33.03-.02.23.03.35.05-.05.12-.1.25-.18.36,0,0-.23-.04-.44-.08Z"/>
            <path class="cls-1" d="M104.57,22.65c.05-.1.07-.19.1-.19.11,0,.24.02.34.05.02,0,0,.14-.05.14-.1.02-.23,0-.4,0Z"/>
            <path class="cls-1" d="M121.67,32.11c.07.04.14.07.19.11.01,0-.08.08-.09.08-.08-.02-.15-.06-.22-.09.03-.03.07-.06.12-.1Z"/>
            <path class="cls-1" d="M120.06,25.23s-.03-.03-.05-.05c.05,0,.1-.01.15-.02,0,.02,0,.04-.01.06-.02,0-.06,0-.09.01Z"/>
            <path class="cls-1" d="M124.99,27.18s-.05.02-.07.02c-.02,0-.04-.03-.06-.04.04,0,.08-.02.12-.03,0,.02,0,.04.01.05Z"/>
            <g>
              <path class="cls-1" d="M85.04,28.19c-.47-.13-.79-.17-.97-.29-.26-.16-.22-.36.1-.47.31-.11.65-.07.81.13.11.14.04.33.06.63Z"/>
              <path class="cls-1" d="M71.99,31.14c-.43-.15-.7-.2-.86-.3-.24-.18-.17-.37.16-.47.3-.08.57,0,.66.2.07.14.02.29.04.58Z"/>
              <path class="cls-1" d="M94.23,28.38c.42.13.72.18.89.3.09.06.04.31-.09.36-.28.12-.62.04-.79-.15-.09-.1-.02-.26-.02-.51Z"/>
              <path class="cls-1" d="M75.3,32.15s.04-.06.07-.09c.05.02.1.04.14.07.01,0-.02.05-.03.05-.06,0-.11-.02-.17-.03Z"/>
            </g>
            <path class="cls-1" d="M72.79,24.71c.19.74-.46,1.42-1.4,1.47-1.05.05-2.39-.58-2.56-1.2-.18-.68.55-1.34,1.57-1.4,1.19-.08,2.19.4,2.38,1.13ZM71.2,24.64c-.05-.03-.1-.09-.16-.09-.06,0-.12.04-.18.06.07.04.14.09.21.13.04-.03.09-.07.13-.1Z"/>
            <path class="cls-1" d="M96.33,23.54c1.46-.19,2.75-.24,4.01.22.78.28.84.61.09.88-.4.14-.99.27-1.41.19-1.1-.2-1.89-.69-2.68-1.29Z"/>
            <path class="cls-1" d="M83.33,21.94c.14.45-.26.87-.91.94-.66.07-1.46-.29-1.62-.74-.14-.41.43-.92,1.08-.96.64-.04,1.3.31,1.45.76Z"/>
            <path class="cls-1" d="M81.03,33.09c.45.23.82.33.97.5.21.23-.14.53-.57.56-.46.03-.81-.12-.84-.38-.02-.18.23-.37.44-.68Z"/>
            <path class="cls-1" d="M81.17,19.41c-.35.48-.74.6-1.43.49.15-.45.59-.53,1.43-.49Z"/>
            <path class="cls-1" d="M73.83,25.75c-.23.15-.38.32-.52.32-.17,0-.4-.15-.48-.27-.04-.06.18-.25.29-.25.19,0,.39.1.71.2Z"/>
            <path class="cls-1" d="M95.18,30.94c.2.14.38.22.43.32.03.05-.22.2-.27.19-.17-.04-.35-.13-.44-.22-.04-.04.14-.15.28-.28Z"/>
            <path class="cls-1" d="M93.09,24.2c.21.13.39.2.4.26.01.06-.13.15-.25.19-.04.02-.26-.07-.28-.12-.02-.08.06-.17.13-.34Z"/>
            <path class="cls-1" d="M68.9,34.18c.13.08.21.13.28.18-.08.04-.15.09-.25.12-.03,0-.17-.06-.17-.09,0-.06.07-.12.13-.21Z"/>
            <path class="cls-1" d="M84.22,15.63c.15.07.31.12.3.15,0,.06-.08.14-.17.16-.07.02-.2-.02-.31-.04.05-.08.1-.16.18-.28Z"/>
            <path class="cls-1" d="M56.16,31.57c.06.02.16.02.18.05.02.03-.03.07-.05.11-.07-.01-.16-.02-.19-.05-.02-.03.03-.08.06-.12Z"/>
            <path class="cls-1" d="M74.02,22.56s-.09.07-.13.1c-.07-.04-.14-.09-.21-.13.06-.02.12-.07.18-.07.05,0,.1.06.16.09Z"/>
            <path class="cls-1" d="M123.4,27.25c-.55.14-1.04-.02-1.53-.06-.11,0-.23-.07-.32-.12-.44-.25-.64-.89-.23-1.2.35-.26.68-.5,1.31-.51.84-.01,1.62.32,1.84.82.12.26-.03.49-.2.71-.17.22-.39.43-.87.36Z"/>
            <path class="cls-1" d="M110.93,31.92c.37-.03.67.04.87.21.23.2.16.41,0,.59-.13.15-.56.27-.81.19-.27-.09-.51-.23-.7-.38-.15-.13.05-.25.16-.35.13-.11.23-.25.48-.26Z"/>
            <path class="cls-1" d="M122.38,28.87c-.37.03-.93-.23-1-.47-.07-.24.29-.49.73-.52.47-.03.85.12.94.39.1.29-.2.56-.67.6Z"/>
            <path class="cls-1" d="M126.13,33.24c-.31,0-.57-.05-.77-.2-.06-.05-.12-.14-.09-.18.13-.15.29-.3.46-.44.04-.03.21-.03.31-.02.16.02.31.06.46.1.22.05.39.22.3.35-.13.18-.32.34-.67.39Z"/>
            <path class="cls-1" d="M98.06,30.31c-.07-.18.11-.34.41-.37.3-.03.56.08.62.27.06.19-.08.34-.34.37-.3.03-.63-.1-.69-.27Z"/>
            <path class="cls-1" d="M92.53,32.01c.03.12-.11.23-.29.24-.22,0-.47-.11-.49-.22-.02-.11.12-.2.34-.21.21-.02.4.07.44.2Z"/>
            <path class="cls-1" d="M98.81,31.38c-.17,0-.28-.05-.31-.16-.03-.11.09-.2.28-.21.17-.01.3.05.33.16.03.11-.09.21-.29.22Z"/>
            <path class="cls-1" d="M113.82,32.64c.37-.06.55-.02.59.11.03.11-.07.18-.24.2-.2.03-.3-.05-.35-.32Z"/>
            <path class="cls-1" d="M122.2,29.76c-.16-.09-.3-.13-.35-.19-.07-.09.02-.17.18-.19.16-.03.36.05.35.14,0,.07-.1.14-.19.25Z"/>
            <path class="cls-1" d="M106.89,30.74c-.16.05-.25.09-.36.11-.04,0-.11-.06-.16-.09.08-.05.15-.11.24-.14.03,0,.13.06.28.12Z"/>
            <path class="cls-1" d="M113.23,32.73c.1.05.2.08.21.12.01.04-.08.08-.12.13-.08-.04-.19-.06-.23-.11-.02-.02.07-.08.14-.14Z"/>
            <path class="cls-1" d="M120.5,31.32c-.2-.06-.31-.1-.46-.15q.31-.07.46.15Z"/>
            <path class="cls-1" d="M118.38,33.17c-.09-.04-.16-.06-.17-.08-.01-.02.04-.06.06-.09.05.02.12.03.15.05.02.02-.01.06-.03.12Z"/>
            <path class="cls-1" d="M113.96,28.66c-.18-.06-.3-.09-.47-.15q.31.02.47.15Z"/>
            <path class="cls-1" d="M98.1,29.51c-.06.04-.11.08-.13.08-.06-.01-.11-.05-.16-.07.04-.02.07-.06.11-.06.04,0,.09.03.17.06Z"/>
            <path class="cls-1" d="M118.02,29.96c-.06-.03-.11-.05-.16-.07.03-.02.06-.05.09-.07.05.02.1.04.14.07,0,0-.04.04-.07.08Z"/>
            <path class="cls-1" d="M99.8,29.95s.1.05.1.06c-.03.03-.07.05-.1.07-.03-.02-.07-.04-.07-.06,0-.02.04-.04.08-.06Z"/>
            <path class="cls-1" d="M113.04,34.35s.04-.06.07-.07c.03,0,.08.01.12.02-.01.02-.02.05-.05.06-.03,0-.08,0-.14-.02Z"/>
            <path class="cls-1" d="M113.32,29.39s-.1-.04-.15-.06c0-.01.02-.02.02-.04.06.01.11.03.17.04-.01.02-.03.03-.04.05Z"/>
            <path class="cls-1" d="M110.51,29.83c-.12.05-.15.07-.18.08-.02-.02-.05-.04-.05-.06,0,0,.03-.03.05-.03.04,0,.08,0,.18.01Z"/>
            <path class="cls-1" d="M92.9,31.61s-.04.02-.06.03c-.02-.01-.05-.03-.05-.04,0,0,.04-.02.06-.03.02.01.04.03.05.04Z"/>
          </g>
          <g>
            <path class="cls-1" d="M68.91.43c.83.28.83.29.72.86-1.03-.21-1.05-.23-.72-.86Z"/>
            <path class="cls-1" d="M5.79,22.16c.07-.14.08-.25.15-.26.09-.02.25.02.35.06.03.01.01.14-.04.16-.09.03-.23.02-.46.04Z"/>
            <path class="cls-1" d="M6.63,18.58s0-.07,0-.11c0,0,.08-.01.09,0,.03.03.05.06.08.1-.06,0-.12.01-.17.02Z"/>
            <g>
              <path class="cls-1" d="M38.23,12.63c.05.02.12.05.16.04.05,0,.07-.05.11-.08-.07-.02-.15-.04-.22-.06-.02.04-.03.07-.05.1Z"/>
              <path class="cls-1" d="M20.41,1.41c.47.47.35.77-.43,1.04-.73.25-1.88.1-2.27-.3-.31-.32-.09-1.17.35-1.34.61-.23,1.82.08,2.35.6Z"/>
              <path class="cls-1" d="M40.41,21.31c-.73-.1-1.46-.17-2.17-.3-.41-.07-.81-.21-.76-.54.04-.27.49-.47,1.07-.46.55,0,1.11.04,1.75.07-.1.41.69.78.11,1.23Z"/>
              <path class="cls-1" d="M19.78,16.29c-1.01.4-1.95.67-3.12.53-.72-.09-.92-.33-.49-.67.23-.18.62-.38.97-.4.92-.04,1.75.21,2.64.54Z"/>
              <path class="cls-1" d="M31.52,14.73c-.32-.33-.22-.73.23-.9.46-.17,1.24-.02,1.57.3.31.3.12.8-.35.94-.47.14-1.13-.01-1.46-.34Z"/>
              <path class="cls-1" d="M.47.98c-.14-.23-.31-.41-.35-.6C.05,0,.44-.2,1.06-.17c.83.05,1.39.33,1.41.72,0,.2-.2.38-.49.26-.6-.25-.97,0-1.52.17Z"/>
              <path class="cls-1" d="M5.04,2.58c-.24-.25-.13-.6.22-.72.45-.16,1.18-.05,1.39.21.19.23-.04.64-.43.76-.38.12-.96,0-1.19-.25Z"/>
              <path class="cls-1" d="M27.86,5.57c-.45-.1-.77-.12-.97-.22-.27-.15-.15-.44.16-.54.33-.1.67-.05.81.15.1.14,0,.33,0,.61Z"/>
              <path class="cls-1" d="M34.37,16.34c.03-.43.26-.6.84-.63.11.38-.18.52-.84.63Z"/>
              <path class="cls-1" d="M36.83,10.09c.1-.16.13-.32.24-.34.13-.03.37.05.49.12.06.04-.01.23-.1.25-.14.03-.35-.01-.63-.04Z"/>
              <path class="cls-1" d="M18.26,9.73c-.22-.07-.39-.11-.48-.17-.04-.03.07-.2.12-.19.15,0,.32.04.44.1.05.02-.04.14-.07.27Z"/>
              <path class="cls-1" d="M23.09,14.66c-.22-.07-.39-.09-.42-.13-.04-.05.03-.14.09-.19.02-.02.23,0,.26.04.06.06.04.14.07.28Z"/>
              <path class="cls-1" d="M36.47,2.61c-.14-.04-.22-.07-.3-.09.04-.05.07-.1.13-.14.02,0,.16.02.17.04.03.05,0,.1,0,.19Z"/>
              <path class="cls-1" d="M33.9,19.84c-.15-.03-.29-.04-.3-.07-.02-.05,0-.12.05-.16.04-.03.16-.02.25-.02,0,.07,0,.14,0,.25Z"/>
              <path class="cls-1" d="M47.32,2.44c-.06,0-.14.01-.16,0-.03-.02-.01-.06-.02-.1.06,0,.14-.01.16,0,.03.02.01.06.01.1Z"/>
              <path class="cls-1" d="M38.23,12.63s.03-.07.05-.1c.07.02.15.04.22.06-.03.03-.06.08-.11.08-.04,0-.11-.03-.16-.04Z"/>
            </g>
            <path class="cls-1" d="M1.14-.42C1.61-.15,1.98-.02,2.13.17c.07.09-.25.35-.49.42-.38.11-.91-.11-.91-.38,0-.17.2-.32.41-.63Z"/>
            <path class="cls-1" d="M13.74,11.45c.45.27.79.39.92.57.18.24,0,.46-.46.51-.44.05-.81-.1-.85-.35-.03-.18.19-.37.38-.72Z"/>
            <path class="cls-1" d="M31.04,11.52c.39.27.68.4.78.56.16.26-.07.46-.52.48-.41.02-.65-.16-.63-.39.02-.17.18-.33.37-.65Z"/>
            <path class="cls-1" d="M3.19,8.87c-.39-.25-.71-.39-.83-.56-.06-.1.18-.35.36-.38.42-.07.76.11.81.37.03.14-.16.29-.35.58Z"/>
            <path class="cls-1" d="M24.08,4.13c-.11.08-.16.17-.24.17-.08,0-.19-.06-.26-.11-.02-.01.06-.11.1-.11.1,0,.21.02.4.05Z"/>
            <path class="cls-1" d="M46.24,10.03s.1.09.09.12c0,.03-.1.05-.16.08-.03-.04-.1-.09-.09-.12.01-.03.1-.05.16-.08Z"/>
            <path class="cls-1" d="M27.91,9.54s-.09.06-.14.09c-.04-.04-.08-.07-.11-.12,0,0,.07-.05.08-.05.07.02.12.05.18.07Z"/>
            <path class="cls-1" d="M69.83,3.55c.2-.07.37-.1.51-.17.37-.18.76-.23,1.22-.1.12.03.24.06.35.09.08.03.21.06.23.1.12.24.34.48.19.74-.01.03-.03.05-.06.08-.11.12-.17.31-.33.34-.34.07-.75.09-1.11.05-.73-.07-1.04-.51-.99-.84.01-.1,0-.2-.01-.29ZM71.01,4.01s-.04-.03-.06-.03c-.02,0-.05.01-.07.02.02.02.05.03.07.05.02-.01.04-.02.06-.04Z"/>
            <path class="cls-1" d="M71.09,12.11c-.29-.05-.52-.06-.79.05-.32.14-.89,0-1.1-.19-.23-.21-.18-.58.1-.74.36-.2.79-.25,1.27-.15.43.09.61.31.74.54.1.18-.1.32-.22.48ZM70.07,11.55s.05-.03.08-.04c-.09-.07-.18-.13-.33-.24-.02.19.08.25.24.29Z"/>
            <path class="cls-1" d="M57.99,6.98c-.26-.07-.51-.14-.76-.22-.31-.09-.55-.31-.45-.5.09-.18.26-.36.47-.5.2-.13.52-.04.77,0,.65.13.86.62.42.91-.14.09-.28.19-.44.3Z"/>
            <path class="cls-1" d="M84.2,12.15c-.44.03-.92-.18-1.02-.46-.08-.23.3-.55.69-.58.46-.04,1.07.25,1.16.56.04.16-.47.46-.83.48ZM84,11.56s.07.03.11.04c.04-.06.08-.12.12-.19-.11-.01-.16,0-.18.02-.03.04-.04.09-.06.13Z"/>
            <path class="cls-1" d="M85.03,14.78c.16-.03.31-.07.47-.08.22-.02.4.04.49.18.05.08.13.16.14.24,0,.08-.01.18-.1.22-.09.04-.3.05-.39.01-.32-.13-.62-.28-.62-.57Z"/>
            <path class="cls-1" d="M72.32,14.49c.21-.03.51.09.56.23.05.12-.12.27-.34.29-.22.02-.49-.07-.55-.19-.06-.12.12-.3.33-.33Z"/>
            <path class="cls-1" d="M47.65,9.5c.04.11-.11.25-.31.27-.21.03-.45-.07-.51-.2-.05-.13.07-.24.29-.26.23-.02.48.07.52.19Z"/>
            <path class="cls-1" d="M50.08,5.46c.05.11-.1.26-.29.28-.18.02-.39-.06-.44-.18-.05-.12.06-.22.27-.26.21-.03.41.04.46.15Z"/>
            <path class="cls-1" d="M65.04,11.35c.32-.04.61.06.65.18.03.1-.07.16-.22.18-.23.04-.54-.06-.56-.19,0-.07.1-.13.13-.17Z"/>
            <path class="cls-1" d="M44.78,2.16c.03.09-.23.25-.42.26-.2,0-.28-.08-.32-.18-.05-.12.1-.25.3-.26.18,0,.4.09.43.19Z"/>
            <path class="cls-1" d="M48.26,3.56c-.19.07-.34.15-.52.18-.1.02-.27-.03-.36-.09-.05-.03-.05-.13-.01-.18.08-.09.23-.07.38-.04.15.04.3.07.52.12Z"/>
            <path class="cls-1" d="M84.18,2.32c-.29.04-.53-.05-.56-.17-.03-.11.09-.15.23-.17.22-.04.5.04.48.15,0,.08-.12.15-.15.19Z"/>
            <path class="cls-1" d="M77.33,4.37c-.23.02-.43-.05-.42-.15,0-.06.09-.14.18-.17.13-.04.36.04.36.13,0,.07-.09.14-.12.18Z"/>
            <path class="cls-1" d="M59.89,1.42c-.16.1-.23.18-.35.21-.14.03-.29-.02-.32-.12-.03-.11.06-.19.23-.2.11,0,.23.06.43.12Z"/>
            <path class="cls-1" d="M72.94,11.78c.17.1.31.14.35.2.07.09-.02.17-.18.19-.16.02-.31-.03-.32-.13-.01-.07.07-.14.15-.26Z"/>
            <path class="cls-1" d="M69.29,12.76c-.21.03-.46-.03-.48-.12,0-.04.06-.11.12-.12.18-.05.44.03.45.13,0,.04-.07.09-.09.11Z"/>
            <path class="cls-1" d="M60.15,5.36c.13.07.26.11.3.17.06.08-.05.16-.19.15-.1,0-.22-.07-.27-.13-.03-.03.08-.1.16-.19Z"/>
            <path class="cls-1" d="M57.27,10.43c.12.06.26.11.25.13-.02.06-.1.14-.18.15-.08,0-.19-.06-.29-.1.06-.05.12-.11.21-.19Z"/>
            <path class="cls-1" d="M51.92,2.56c.15.07.29.11.29.14,0,.06-.07.13-.15.16-.03.01-.22-.04-.24-.08-.02-.06.05-.12.1-.22Z"/>
            <path class="cls-1" d="M39.21,1.54c-.18.13-.35.1-.51.02-.03-.02-.02-.09,0-.1.19-.07.34-.03.5.08Z"/>
            <path class="cls-1" d="M38.84,2.45c-.11-.06-.23-.09-.24-.12,0-.05.06-.1.1-.16.08.03.21.05.24.09.02.04-.06.1-.11.18Z"/>
            <path class="cls-1" d="M86.99,15.01c.1-.07.19-.14.31-.23.11.23.09.25-.31.23Z"/>
            <path class="cls-1" d="M55.15,5.77c-.08.04-.14.1-.18.09-.08,0-.14-.05-.22-.08.05-.04.09-.11.15-.11.06,0,.14.05.25.1Z"/>
            <path class="cls-1" d="M68.74-.02c-.07.11-.15.16-.3.1-.04-.02-.07-.09-.04-.12.09-.08.21-.04.34.01Z"/>
            <path class="cls-1" d="M43.6,12.91c-.09.04-.14.08-.19.08-.06,0-.11-.05-.17-.08.04-.03.08-.08.13-.08.05,0,.12.04.22.08Z"/>
            <path class="cls-1" d="M44.44,9.52c-.11-.05-.2-.07-.24-.12-.02-.02.04-.1.08-.11.08,0,.2.02.23.06.03.03-.03.09-.07.17Z"/>
            <path class="cls-1" d="M73.65,6.16c-.1.04-.16.08-.21.08-.05,0-.11-.05-.13-.09,0-.01.07-.07.11-.07.06,0,.12.04.23.08Z"/>
            <path class="cls-1" d="M84.28,4.28c-.08.05-.13.1-.19.12-.02,0-.09-.03-.14-.05.04-.04.08-.09.13-.12.02-.01.1.02.2.04Z"/>
            <path class="cls-1" d="M49.54,8.34c-.17,0-.34,0-.51,0,0-.01,0-.03,0-.04.17-.02.33-.03.5-.05,0,.03,0,.05.01.08Z"/>
            <path class="cls-1" d="M64.68,8.81c-.07.04-.11.09-.14.09-.07,0-.12-.04-.18-.07.03-.03.06-.08.09-.08.06,0,.13.03.23.05Z"/>
            <path class="cls-1" d="M44.73,8.97c-.04-.06-.08-.13-.12-.19.13-.04.14-.02.12.19Z"/>
            <path class="cls-1" d="M42.8,4.06q-.3.13-.44-.04c.13.01.24.02.44.04Z"/>
            <path class="cls-1" d="M74.34,15.3s.09.06.11.09c0,0-.07.05-.09.04-.05-.01-.09-.04-.13-.06.03-.02.06-.04.11-.07Z"/>
            <path class="cls-1" d="M47.13,14.29c-.06.05-.09.1-.12.1-.06,0-.13-.03-.17-.06-.01-.01.04-.08.07-.08.06,0,.13.02.23.05Z"/>
            <path class="cls-1" d="M45.1,5.19s.07.07.08.1c0,.03-.03.08-.06.08-.04,0-.13-.01-.15-.04-.02-.02.02-.06.03-.09.03-.02.07-.04.1-.06Z"/>
            <path class="cls-1" d="M48.36,15.98s-.08.05-.11.05c-.03,0-.06-.03-.1-.05.03-.02.05-.05.08-.05.03,0,.07.02.12.04Z"/>
            <path class="cls-1" d="M72.31.05c-.1.04-.14.07-.17.07-.03,0-.07-.03-.1-.05.03-.02.06-.04.09-.05.04,0,.09.01.17.03Z"/>
            <path class="cls-1" d="M74.92,11.29s.09.06.08.07c0,.03-.05.05-.08.07-.03-.02-.08-.03-.09-.05,0-.02.03-.04.08-.1Z"/>
            <path class="cls-1" d="M78.96,13.71s.06,0,.09,0c-.01.02-.02.04-.04.07-.02,0-.06-.02-.07-.03,0-.01.01-.03.02-.05Z"/>
            <path class="cls-1" d="M79.78,2.95s.05.04.08.06c-.03,0-.07.03-.08.03-.03-.01-.05-.04-.08-.06.02,0,.05-.01.08-.02Z"/>
            <path class="cls-1" d="M82.53,2.42s-.06.03-.1.04c-.01,0-.04-.02-.07-.04.03-.02.05-.04.09-.05,0,0,.04.02.08.04Z"/>
            <path class="cls-1" d="M48.59,1.01s-.02.03-.03.04c-.02,0-.06-.02-.07-.03,0,0,.02-.03.03-.04.02.01.05.02.07.03Z"/>
            <path class="cls-1" d="M83.09.06s-.06.04-.1.05c-.02,0-.07-.01-.07-.02,0-.02.02-.04.03-.07.04,0,.08.02.14.03Z"/>
            <path class="cls-1" d="M71.23,14.41s-.03-.06-.04-.09c.01,0,.04,0,.04,0,.03.03.05.06.07.09-.02,0-.04,0-.06.01Z"/>
            <path class="cls-1" d="M67.95,16.43s.06,0,.07.02c0,0-.01.03-.02.04-.02,0-.06,0-.07-.02,0,0,0-.03.02-.05Z"/>
            <path class="cls-1" d="M86.52,14.91s-.02.03-.03.04c-.02,0-.06,0-.07-.02,0-.01.01-.03.02-.05.03,0,.05.01.08.02Z"/>
            <path class="cls-1" d="M63.09,6.41s-.03.03-.04.04c-.03-.01-.06-.03-.09-.04.02,0,.04-.03.06-.03.02,0,.05.02.07.03Z"/>
            <path class="cls-1" d="M73.51,7.08s.06,0,.09.01c-.01.02-.03.04-.04.07-.03,0-.06-.02-.07-.03,0-.01.01-.03.02-.05Z"/>
            <path class="cls-1" d="M63.5,10.98s-.03.03-.04.04c-.02-.01-.06-.02-.06-.03,0-.01.03-.03.04-.04.02,0,.05.02.07.03Z"/>
            <path class="cls-1" d="M73.69,9.66s-.05-.02-.07-.03c0,0,0-.02.01-.02.03,0,.05,0,.08,0,0,.01-.02.03-.03.05Z"/>
            <path class="cls-1" d="M85.87,8.59s.04.02.04.02c0,.01-.02.03-.04.04-.01,0-.04-.01-.04-.01,0-.01.02-.03.04-.04Z"/>
            <path class="cls-1" d="M71.85,1.48s.01.02,0,.02c0,0-.02,0-.04.01,0-.01,0-.02-.01-.04.01,0,.03,0,.04,0Z"/>
            <path class="cls-1" d="M64.38,11.64s-.07.02-.09.01c-.02-.01-.05-.03-.05-.05,0,0,.03-.02.05-.03.03.02.05.04.09.06Z"/>
            <path class="cls-1" d="M47.87.49s.05.02.07.03c-.02.01-.03.04-.05.04-.02,0-.04-.02-.07-.03.02-.01.03-.03.05-.04Z"/>
            <path class="cls-1" d="M61.61,12.79s.05.02.07.03c-.02.02-.05.03-.07.05-.02-.01-.05-.03-.05-.04,0,0,.03-.02.05-.03Z"/>
            <path class="cls-1" d="M71.01,4.01s-.04.03-.06.04c-.02-.02-.05-.03-.07-.05.02,0,.05-.02.07-.02.02,0,.04.02.06.03Z"/>
            <path class="cls-1" d="M70.07,11.55c-.16-.04-.26-.1-.24-.29.15.11.24.18.33.24-.03.01-.06.03-.08.04Z"/>
            <path class="cls-1" d="M84,11.56s.03-.09.06-.13c.01-.02.07-.03.18-.02-.04.06-.08.12-.12.19-.04-.01-.07-.03-.11-.04Z"/>
          </g>
          <g>
            <path class="cls-1" d="M43.23,3.45c.59-.22,1.42-.12,1.77.22.34.32.17.82-.33,1-.53.2-1.52.1-1.83-.18-.37-.33-.18-.83.39-1.04Z"/>
            <path class="cls-1" d="M47.7,2.64c.48-.2.74-.09.96.07.26.18.21.44-.09.54-.31.1-.66.07-.81-.12-.12-.16-.05-.36-.06-.48Z"/>
            <path class="cls-1" d="M70.77,10.11c.07-.14.08-.25.15-.26.09-.02.25.02.35.06.03.01.01.14-.04.16-.09.03-.23.02-.46.04Z"/>
            <path class="cls-1" d="M71.62,6.54s0-.07,0-.11c0,0,.08-.01.09,0,.03.03.05.06.08.1-.06,0-.11,0-.17.01Z"/>
            <g>
              <path class="cls-1" d="M103.22.58c.05.02.12.05.16.04.04,0,.07-.05.11-.08-.07-.02-.15-.04-.22-.06-.02.03-.03.07-.05.1Z"/>
              <path class="cls-1" d="M105.4,9.27c-.74-.1-1.46-.17-2.17-.29-.41-.07-.81-.21-.76-.54.05-.27.49-.47,1.07-.46.55,0,1.11.04,1.75.06-.1.41.69.78.11,1.23Z"/>
              <path class="cls-1" d="M85.95,3.69c-1.01.4-1.96.67-3.12.53-.72-.09-.92-.33-.49-.67.23-.18.62-.38.97-.4.92-.04,1.75.21,2.64.54Z"/>
              <path class="cls-1" d="M96.51,2.69c-.33-.33-.22-.73.23-.9.46-.17,1.25-.02,1.57.3.31.3.12.8-.35.94-.47.14-1.13-.01-1.45-.34Z"/>
              <path class="cls-1" d="M99.35,4.3c.03-.43.26-.6.84-.63.11.38-.18.52-.84.63Z"/>
              <path class="cls-1" d="M88.07,2.61c-.22-.07-.39-.09-.43-.13-.04-.05.03-.14.09-.19.02-.02.23,0,.26.04.06.06.04.14.07.28Z"/>
              <path class="cls-1" d="M98.89,7.8c-.15-.03-.29-.04-.3-.07-.02-.05,0-.12.05-.16.04-.03.16-.02.25-.02,0,.07,0,.14,0,.25Z"/>
              <path class="cls-1" d="M103.22.58s.03-.07.05-.1c.07.02.15.04.22.06-.03.03-.06.08-.11.08-.04,0-.11-.03-.16-.04Z"/>
            </g>
            <path class="cls-1" d="M78.73-.6c.45.27.79.39.92.57.18.24,0,.46-.46.51-.44.04-.81-.1-.85-.35-.03-.18.19-.38.38-.72Z"/>
            <path class="cls-1" d="M96.02-.53c.39.27.68.4.78.56.16.26-.07.46-.52.48-.41.02-.65-.16-.63-.39.02-.17.18-.33.37-.65Z"/>
            <path class="cls-1" d="M104.85,1.09c-.45-.04-.46-.04-.41-.26.02-.08.04-.17.07-.25.11-.23.37-.33.78-.3.13.01.25.02.38.04.35.05.59.18.64.39.04.15.13.27.27.4.1.08.15.2.16.3.03.29-.32.53-.75.54-.59,0-1.04-.21-1.09-.52-.02-.1-.03-.21-.05-.33Z"/>
            <path class="cls-1" d="M108.59.86c-.09.04-.14.09-.19.08-.06,0-.11-.05-.17-.08.04-.03.08-.08.13-.08.05,0,.12.04.22.08Z"/>
            <path class="cls-1" d="M112.12,2.24c-.06.05-.09.1-.12.1-.06,0-.13-.03-.17-.06-.01,0,.04-.08.07-.08.06,0,.13.03.23.05Z"/>
            <path class="cls-1" d="M113.35,3.93s-.08.05-.11.05c-.03,0-.07-.03-.1-.05.03-.02.05-.05.08-.05.03,0,.07.02.12.04Z"/>
            <path class="cls-1" d="M126.6.74s.05.02.07.03c-.02.02-.05.03-.07.05-.02-.01-.05-.03-.05-.04,0-.01.03-.02.05-.04Z"/>
          </g>
        </g>
      </g>
    </mask>
  </defs>
  <g class="cls-4">
    <g>
      <path class="cls-2" d="M123.28,3.74c.75,0,1.36.61,1.36,1.36v24.14c0,.75-.61,1.36-1.36,1.36H5.1c-.75,0-1.36-.61-1.36-1.36V5.1c0-.75.61-1.36,1.36-1.36h118.18M123.28,0H5.1C2.28,0,0,2.28,0,5.1v24.14c0,2.81,2.28,5.1,5.1,5.1h118.18c2.81,0,5.1-2.28,5.1-5.1V5.1c0-2.82-2.28-5.1-5.1-5.1h0Z"/>
      <g>
        <path class="cls-2" d="M19.03,23.86c-1.74,0-2.75-.5-3.01-1.51-.05-.17-.07-.35-.07-.56,0-.48.13-1.06.38-1.74l2.27-6.08c.34-.89.79-1.61,1.35-2.16.56-.55,1.2-.94,1.92-1.19.72-.24,1.47-.37,2.25-.37s1.43.12,1.97.37c.53.25.88.64,1.03,1.19.05.18.07.37.07.58,0,.45-.11.97-.33,1.57l-2.27,6.08c-.37.98-.84,1.74-1.41,2.3-.57.56-1.21.95-1.92,1.17s-1.45.34-2.23.34ZM19.85,21.66c.2,0,.39-.03.57-.09.17-.06.34-.2.5-.41.16-.21.32-.53.49-.96l2.41-6.45c.12-.34.19-.61.19-.8,0-.02,0-.08,0-.19,0-.11-.07-.19-.2-.25-.13-.07-.29-.1-.5-.1s-.39.03-.57.1c-.18.06-.34.19-.49.39-.15.19-.3.48-.44.85l-2.41,6.45c-.16.41-.23.73-.23.94v.18c0,.11.06.2.19.26.13.06.29.09.5.09Z"/>
        <path class="cls-2" d="M28.23,23.86c-1.74,0-2.75-.5-3.02-1.51-.05-.17-.07-.35-.07-.56,0-.48.13-1.06.38-1.74l3.6-9.64h3.13l-3.66,9.79c-.15.41-.23.73-.23.94v.18c0,.11.06.2.19.26.13.06.29.09.49.09s.39-.03.57-.09c.18-.06.34-.2.51-.41.16-.21.32-.53.48-.96l3.66-9.79h3.13l-3.6,9.64c-.37.98-.84,1.74-1.41,2.3s-1.21.95-1.92,1.17c-.71.23-1.45.34-2.23.34Z"/>
        <path class="cls-2" d="M37.99,23.71h-3.14l4.15-11.09h-2.03l.83-2.22h7.18l-.83,2.22h-2.03l-4.14,11.09Z"/>
        <path class="cls-2" d="M49.42,23.86c-1.74,0-2.75-.5-3.02-1.51-.05-.17-.07-.35-.07-.56,0-.48.13-1.06.38-1.74l2.27-6.08c.34-.89.79-1.61,1.35-2.16.56-.55,1.2-.94,1.92-1.19.72-.24,1.47-.37,2.25-.37s1.43.12,1.97.37c.53.25.88.64,1.03,1.19.05.18.07.37.07.58,0,.45-.11.97-.32,1.57l-2.27,6.08c-.37.98-.84,1.74-1.41,2.3s-1.21.95-1.92,1.17c-.71.23-1.45.34-2.23.34ZM50.24,21.66c.2,0,.39-.03.57-.09.17-.06.34-.2.5-.41.16-.21.33-.53.49-.96l2.41-6.45c.12-.34.19-.61.19-.8,0-.02,0-.08,0-.19s-.07-.19-.2-.25c-.13-.07-.29-.1-.5-.1s-.39.03-.57.1c-.18.06-.34.19-.49.39-.15.19-.3.48-.44.85l-2.41,6.45c-.15.41-.23.73-.23.94v.18c0,.11.06.2.19.26.13.06.29.09.5.09Z"/>
        <path class="cls-2" d="M57.74,23.71h-3.14l4.97-13.3h6.16l-.83,2.22h-3.03l-1.06,2.84h2.89l-.91,2.44h-2.89l-2.17,5.81Z"/>
        <path class="cls-2" d="M70.24,23.86c-.61,0-1.19-.09-1.73-.27-.91-.32-1.36-.93-1.36-1.82,0-.19.02-.4.07-.62.03-.16.09-.39.19-.69.1-.3.2-.59.31-.89s.19-.5.25-.62h3.24s-.1.31-.29.81l-.4,1.07c-.07.2-.11.36-.11.47,0,.28.17.43.52.43.31,0,.58-.15.81-.44.06-.07.11-.14.15-.21l.16-.37c.28-.65.43-1.09.43-1.33,0-.26-.12-.5-.35-.72-.16-.14-.32-.28-.5-.41l-.65-.51c-.31-.23-.59-.48-.85-.75-.38-.43-.58-.96-.58-1.57,0-.37.06-.75.19-1.16.15-.55.4-1.1.73-1.64.77-1.19,1.83-1.93,3.18-2.2.53-.1,1.03-.16,1.51-.16.67,0,1.3.1,1.89.31.77.27,1.16.77,1.16,1.49,0,.42-.17,1.04-.51,1.86l-.18.46h-3.26l.49-1.33c.03-.1.05-.19.05-.26,0-.2-.12-.31-.35-.33h-.07c-.17,0-.33.04-.5.13-.17.08-.29.21-.38.38-.16.33-.28.67-.37,1-.02.07-.03.14-.03.2,0,.19.07.35.2.48.41.44.85.86,1.32,1.25.22.19.44.38.64.58.54.52.82,1.13.82,1.84,0,.15-.01.3-.04.45-.16,1.04-.61,2.06-1.36,3.06-.74.97-1.69,1.59-2.83,1.85-.56.12-1.09.19-1.6.19Z"/>
        <path class="cls-2" d="M79.61,23.71h-3.14l4.15-11.09h-2.03l.83-2.22h7.18l-.83,2.22h-2.03l-4.14,11.09Z"/>
        <path class="cls-2" d="M86.05,23.86c-1.74,0-2.75-.5-3.01-1.51-.05-.17-.07-.35-.07-.56,0-.48.13-1.06.38-1.74l2.27-6.08c.34-.89.79-1.61,1.35-2.16.56-.55,1.2-.94,1.92-1.19.72-.24,1.47-.37,2.25-.37s1.43.12,1.97.37c.53.25.88.64,1.03,1.19.05.18.07.37.07.58,0,.45-.11.97-.33,1.57l-2.27,6.08c-.37.98-.84,1.74-1.41,2.3-.57.56-1.21.95-1.92,1.17s-1.45.34-2.23.34ZM86.87,21.66c.2,0,.39-.03.57-.09.17-.06.34-.2.5-.41.16-.21.32-.53.49-.96l2.41-6.45c.12-.34.19-.61.19-.8,0-.02,0-.08,0-.19,0-.11-.07-.19-.2-.25-.13-.07-.29-.1-.5-.1s-.39.03-.57.1c-.18.06-.34.19-.49.39-.15.19-.3.48-.44.85l-2.41,6.45c-.16.41-.23.73-.23.94v.18c0,.11.06.2.19.26.13.06.29.09.5.09Z"/>
        <path class="cls-2" d="M95.17,23.86c-1.74,0-2.75-.5-3.02-1.51-.05-.17-.07-.35-.07-.56,0-.48.13-1.06.38-1.74l2.27-6.08c.34-.89.79-1.61,1.35-2.16.56-.55,1.2-.94,1.92-1.19.72-.24,1.47-.37,2.25-.37s1.43.12,1.97.37c.53.25.88.64,1.03,1.19.05.18.07.37.07.58,0,.45-.11.97-.32,1.57l-.46,1.22h-3.13l.54-1.44c.12-.34.19-.61.19-.8,0-.02,0-.08,0-.19s-.07-.19-.2-.25c-.13-.07-.29-.1-.5-.1s-.39.03-.57.1c-.18.06-.34.19-.49.39-.15.19-.3.48-.44.85l-2.41,6.45c-.15.41-.23.73-.23.94v.18c0,.11.06.2.19.26.13.06.29.09.5.09s.39-.03.57-.09c.17-.06.34-.2.5-.41.16-.21.33-.53.49-.96l.75-2.01h3.13l-.7,1.87c-.37.98-.84,1.74-1.41,2.3s-1.21.95-1.92,1.17c-.71.23-1.45.34-2.23.34Z"/>
        <path class="cls-2" d="M108.89,23.71h-3.19l-.14-5.76-2.15,5.76h-3.14l4.97-13.3h3.14l-1.52,4.05,3.35-4.05h3.44l-5.03,5.48.27,7.82Z"/>
      </g>
    </g>
  </g>
</svg>